<?xml version="1.0" encoding="UTF-8"?>
<svg width="276px" height="316px" viewBox="0 0 276 316" version="1.1" xmlns="http://www.w3.org/2000/svg" xmlns:xlink="http://www.w3.org/1999/xlink">
    <title>Logo</title>
    <defs></defs>
    <g id="Page" stroke="none" stroke-width="1" fill="none" fill-rule="evenodd">
        <g id="Logo" transform="translate(-22.000000, -2.000000)" fill="#FFFFFF">
            <path d="M155.661218,3.03866918 C158.057461,1.65519767 161.937618,1.65235694 164.338782,3.03866918 L293.661218,77.7030128 C296.057461,79.0864843 298,82.4453786 298,85.2180031 L298,234.54669 C298,237.313633 296.062382,240.675368 293.661218,242.061681 L164.338782,316.726024 C161.942539,318.109496 158.062382,318.112336 155.661218,316.726024 L26.3387817,242.061681 C23.9425387,240.678209 22,237.319315 22,234.54669 L22,85.2180031 C22,82.4510601 23.9376184,79.089325 26.3387817,77.7030128 L155.661218,3.03866918 L155.661218,3.03866918 Z M155.853802,24.2232629 C158.245542,22.8423908 162.12092,22.8410054 164.51506,24.2232629 L276.038233,88.6111964 C278.429973,89.9920684 280.368862,93.3475516 280.368862,96.1120665 L280.368862,224.887933 C280.368862,227.649678 278.432373,231.006546 276.038233,232.388804 L164.51506,296.776737 C162.12332,298.157609 158.247942,298.158995 155.853802,296.776737 L44.3306294,232.388804 C41.9388888,231.007932 40,227.652448 40,224.887933 L40,96.1120665 C40,93.3503224 41.9364892,89.9934539 44.3306294,88.6111964 L155.853802,24.2232629 L155.853802,24.2232629 Z M221,177.58 C221,176.123326 221.268331,174.74334 221.805,173.44 C222.341669,172.13666 223.089162,171.005838 224.0475,170.0475 C225.005838,169.089162 226.13666,168.341669 227.44,167.805 C228.74334,167.268331 230.123326,167 231.58,167 C233.036674,167 234.41666,167.268331 235.72,167.805 C237.02334,168.341669 238.154162,169.089162 239.1125,170.0475 C240.070838,171.005838 240.818331,172.13666 241.355,173.44 C241.891669,174.74334 242.16,176.123326 242.16,177.58 C242.16,179.036674 241.891669,180.41666 241.355,181.72 C240.818331,183.02334 240.070838,184.154162 239.1125,185.1125 C238.154162,186.070838 237.02334,186.818331 235.72,187.355 C234.41666,187.891669 233.036674,188.16 231.58,188.16 C230.123326,188.16 228.74334,187.891669 227.44,187.355 C226.13666,186.818331 225.005838,186.070838 224.0475,185.1125 C223.089162,184.154162 222.341669,183.02334 221.805,181.72 C221.268331,180.41666 221,179.036674 221,177.58 L221,177.58 L221,177.58 L221,177.58 Z M125,132.38 L141.56,132.38 L141.56,139.97 L141.79,139.97 C142.326669,138.896661 143.093328,137.823339 144.09,136.75 C145.086672,135.676661 146.274993,134.718338 147.655,133.875 C149.035007,133.031662 150.606658,132.341669 152.37,131.805 C154.133342,131.268331 156.04999,131 158.12,131 C162.03002,131 165.499152,131.804992 168.5275,133.415 C171.555848,135.025008 173.836659,137.554983 175.37,141.005 C177.363343,137.401649 179.778319,134.833341 182.615,133.3 C185.451681,131.766659 188.939979,131 193.08,131 C196.836685,131 199.999154,131.632494 202.5675,132.8975 C205.135846,134.162506 207.167493,135.887489 208.6625,138.0725 C210.157507,140.257511 211.23083,142.825819 211.8825,145.7775 C212.53417,148.729181 212.86,151.89165 212.86,155.265 L212.86,188.27 L195.61,188.27 L195.61,155.725 C195.61,153.11832 195.054172,150.875843 193.9425,148.9975 C192.830828,147.119157 190.856681,146.18 188.02,146.18 C186.026657,146.18 184.359173,146.50583 183.0175,147.1575 C181.675827,147.80917 180.602504,148.709994 179.7975,149.86 C178.992496,151.010006 178.417502,152.351659 178.0725,153.885 C177.727498,155.418341 177.555,157.028325 177.555,158.715 L177.555,188.27 L160.305,188.27 L160.305,158.715 C160.305,157.718328 160.266667,156.491674 160.19,155.035 C160.113333,153.578326 159.845002,152.19834 159.385,150.895 C158.924998,149.59166 158.177505,148.480005 157.1425,147.56 C156.107495,146.639995 154.593343,146.18 152.6,146.18 C150.376656,146.18 148.575007,146.582496 147.195,147.3875 C145.814993,148.192504 144.760837,149.265827 144.0325,150.6075 C143.304163,151.949173 142.825001,153.463325 142.595,155.15 C142.364999,156.836675 142.25,158.599991 142.25,160.44 L142.25,188.27 L125,188.27 L125,132.38 L125,132.38 L125,132.38 Z M78,132.38 L95.25,132.38 L95.25,141.35 L95.48,141.35 C97.3200092,137.899983 99.5049874,135.312509 102.035,133.5875 C104.565013,131.862491 107.746648,131 111.58,131 C112.576672,131 113.573328,131.038333 114.57,131.115 C115.566672,131.191667 116.486662,131.344999 117.33,131.575 L117.33,147.33 C116.103327,146.946665 114.895839,146.659168 113.7075,146.4675 C112.519161,146.275832 111.27334,146.18 109.97,146.18 C106.673317,146.18 104.066676,146.639995 102.15,147.56 C100.233324,148.480005 98.7575052,149.764158 97.7225,151.4125 C96.6874948,153.060842 96.0166682,155.034989 95.71,157.335 C95.4033318,159.635012 95.25,162.164986 95.25,164.925 L95.25,188.27 L78,188.27 L78,132.38 L78,132.38 L78,132.38 Z" id="Combined-Shape"></path>
        </g>
    </g>
</svg>
