<svg width="276" height="316" viewBox="0 0 276 316" xmlns="http://www.w3.org/2000/svg"><path d="M133.661 1.039c2.396-1.384 6.277-1.387 8.678 0L271.66 75.703c2.396 1.383 4.339 4.742 4.339 7.515v149.329c0 2.767-1.938 6.128-4.339 7.515L142.34 314.726c-2.396 1.383-6.277 1.386-8.678 0L4.34 240.062C1.943 238.678 0 235.319 0 232.547V83.218c0-2.767 1.938-6.129 4.339-7.515L133.66 1.039zm.193 21.184c2.392-1.38 6.267-1.382 8.661 0l111.523 64.388c2.392 1.381 4.33 4.737 4.33 7.501v128.776c0 2.762-1.936 6.119-4.33 7.5l-111.523 64.389c-2.392 1.38-6.267 1.382-8.661 0L22.33 230.389c-2.392-1.381-4.331-4.737-4.331-7.501V94.112c0-2.762 1.936-6.119 4.33-7.5l111.524-64.389zM199 175.58c0-1.457.268-2.837.805-4.14a10.271 10.271 0 0 1 2.243-3.392 10.271 10.271 0 0 1 3.392-2.243 10.766 10.766 0 0 1 4.14-.805c1.457 0 2.837.268 4.14.805a10.271 10.271 0 0 1 3.393 2.243c.958.958 1.705 2.089 2.242 3.392.537 1.303.805 2.683.805 4.14 0 1.457-.268 2.837-.805 4.14a10.271 10.271 0 0 1-2.242 3.393 10.271 10.271 0 0 1-3.393 2.242 10.766 10.766 0 0 1-4.14.805c-1.457 0-2.837-.268-4.14-.805a10.271 10.271 0 0 1-3.392-2.242 10.271 10.271 0 0 1-2.243-3.393 10.766 10.766 0 0 1-.805-4.14zm-96-45.2h16.56v7.59h.23c.537-1.073 1.303-2.147 2.3-3.22.997-1.073 2.185-2.032 3.565-2.875s2.952-1.533 4.715-2.07c1.763-.537 3.68-.805 5.75-.805 3.91 0 7.38.805 10.407 2.415 3.029 1.61 5.31 4.14 6.843 7.59 1.993-3.603 4.408-6.172 7.245-7.705 2.837-1.533 6.325-2.3 10.465-2.3 3.757 0 6.92.632 9.487 1.898 2.569 1.265 4.6 2.99 6.095 5.174 1.496 2.186 2.569 4.754 3.22 7.706.652 2.951.978 6.114.978 9.487v33.005h-17.25v-32.545c0-2.607-.556-4.85-1.668-6.727-1.111-1.879-3.085-2.818-5.922-2.818-1.993 0-3.66.326-5.002.977-1.342.652-2.415 1.553-3.22 2.703-.806 1.15-1.38 2.492-1.726 4.025a21.947 21.947 0 0 0-.517 4.83v29.555h-17.25v-29.555c0-.997-.038-2.223-.115-3.68a14.693 14.693 0 0 0-.805-4.14 7.92 7.92 0 0 0-2.242-3.335c-1.036-.92-2.55-1.38-4.543-1.38-2.223 0-4.025.402-5.405 1.207-1.38.806-2.434 1.879-3.162 3.22-.729 1.342-1.208 2.856-1.438 4.543a39.145 39.145 0 0 0-.345 5.29v27.83H103v-55.89zm-47 0h17.25v8.97h.23c1.84-3.45 4.025-6.037 6.555-7.762 2.53-1.726 5.712-2.588 9.545-2.588.997 0 1.993.038 2.99.115.997.077 1.917.23 2.76.46v15.755a26.055 26.055 0 0 0-3.623-.863 23.456 23.456 0 0 0-3.737-.287c-3.297 0-5.903.46-7.82 1.38-1.917.92-3.392 2.204-4.428 3.852-1.035 1.649-1.705 3.623-2.012 5.923-.307 2.3-.46 4.83-.46 7.59v23.345H56v-55.89z" fill="#FFF" fill-rule="evenodd"/></svg>